<svg xmlns="http://www.w3.org/2000/svg" width="173.999" height="173.958" viewBox="0 0 173.999 173.958">
  <g id="Group_220" data-name="Group 220" transform="translate(6555.983 -3393.588)">
    <g id="Group_211" data-name="Group 211" transform="translate(-6555.983 3393.588)">
      <path id="Path_366" data-name="Path 366" d="M-6505.7,3395.24l2.112,8.581-1.934.476-1.71-6.94-1.713.422-.4-1.64Z" transform="translate(6572.865 -3392.99)" fill="#38785e"/>
      <path id="Path_367" data-name="Path 367" d="M-6493.811,3397.966c.281,2.871-.768,4.566-2.949,4.78s-3.55-1.247-3.831-4.116.767-4.567,2.96-4.782S-6494.091,3395.11-6493.811,3397.966Zm-4.862.476c.2,2.081.755,2.951,1.772,2.851s1.376-1.058,1.173-3.139-.756-2.95-1.759-2.851S-6498.877,3396.349-6498.673,3398.442Z" transform="translate(6576.019 -3393.501)" fill="#38785e"/>
      <path id="Path_368" data-name="Path 368" d="M-6485.065,3398.216c-.129,2.884-1.409,4.417-3.6,4.319s-3.342-1.74-3.213-4.623,1.408-4.417,3.611-4.32S-6484.937,3395.344-6485.065,3398.216Zm-4.886-.218c-.094,2.091.332,3.031,1.353,3.075s1.514-.854,1.605-2.944-.331-3.029-1.338-3.075S-6489.858,3395.9-6489.951,3398Z" transform="translate(6579.186 -3393.588)" fill="#38785e"/>
      <path id="Path_369" data-name="Path 369" d="M-6473.694,3402.506l-.8,2.734-1.912-.561.789-2.686-1.433-6.7,1.922.565,1.05,4.435,3.232-3.176,1.924.565Z" transform="translate(6584.557 -3392.972)" fill="#38785e"/>
      <path id="Path_370" data-name="Path 370" d="M-6460.069,3401.458l-.7,1.495-4.277-2.01-.815,1.733,3.844,1.808-.7,1.5-3.845-1.808-.831,1.77,4.4,2.069-.7,1.494-6.207-2.917,3.754-7.986Z" transform="translate(6587.146 -3391.773)" fill="#38785e"/>
      <path id="Path_371" data-name="Path 371" d="M-6456.176,3411.777l-3.374-2.3-1.537,1.026-1.7-1.154,8.125-5.135,1.7,1.156-1.847,9.406-1.759-1.2Zm.369-1.684.781-3.612-3.083,2.046Z" transform="translate(6589.723 -3389.74)" fill="#38785e"/>
      <path id="Path_372" data-name="Path 372" d="M-6450.55,3419.485l.725-2.789-.139-.128-1.332-1.27-1.736,1.825-1.442-1.373,6.082-6.386,2.772,2.641c1.669,1.589,1.855,3.3.507,4.71a2.911,2.911,0,0,1-3.158.925l-.647,3.4Zm.4-5.391,1.332,1.269a1.459,1.459,0,0,0,2.291.095c.68-.711.562-1.5-.232-2.259l-1.331-1.268Z" transform="translate(6592.731 -3387.877)" fill="#38785e"/>
      <path id="Path_373" data-name="Path 373" d="M-6440.617,3419.872c-.407-.528-.874-.742-1.254-.449-1.286.991,2.3,4.159-.221,6.086-1.367,1.055-3.02.436-4.212-1.111a6.2,6.2,0,0,1-1.269-3.936l1.772-.362a5.23,5.23,0,0,0,.858,3.281c.5.647,1.04.853,1.469.523,1.317-1.018-2.32-4.145.154-6.052,1.267-.977,2.9-.5,4.148,1.112a6.313,6.313,0,0,1,1.289,3.239l-1.777.4A6.146,6.146,0,0,0-6440.617,3419.872Z" transform="translate(6595.227 -3384.988)" fill="#38785e"/>
      <path id="Path_374" data-name="Path 374" d="M-6433.265,3439.329a4.532,4.532,0,0,1-5.991-2.6,4.527,4.527,0,0,1,2.288-6.12,4.5,4.5,0,0,1,5.969,2.612A4.508,4.508,0,0,1-6433.265,3439.329Zm-2.905-6.842a2.742,2.742,0,0,0-1.476,3.583,2.7,2.7,0,0,0,3.584,1.38,2.678,2.678,0,0,0,1.472-3.528A2.713,2.713,0,0,0-6436.17,3432.487Z" transform="translate(6598.088 -3380.318)" fill="#38785e"/>
      <path id="Path_375" data-name="Path 375" d="M-6426.853,3446.1l-1.6.389-1.051-4.2-2.1.524.965,3.861-1.613.4-.966-3.863-3.238.811-.481-1.931,8.553-2.138Z" transform="translate(6599.077 -3376.803)" fill="#38785e"/>
      <path id="Path_376" data-name="Path 376" d="M-6425.868,3461.381l-1.688.028-.043-2.7-7.128.118-.033-1.99,7.128-.118-.044-2.682,1.687-.029Z" transform="translate(6599.867 -3371.713)" fill="#38785e"/>
      <path id="Path_377" data-name="Path 377" d="M-6426.386,3465.848l-8.772-.946.212-1.981,8.773.947Z" transform="translate(6599.724 -3368.488)" fill="#38785e"/>
      <path id="Path_378" data-name="Path 378" d="M-6427.05,3472.667l-5.861,1.146,4.583,3.82-.551,2.147-8.54-2.2.446-1.734,5.759,1.482-4.309-3.528.322-1.257,5.476-1.011-5.758-1.48.449-1.745,8.541,2.2Z" transform="translate(6598.905 -3366.536)" fill="#38785e"/>
      <path id="Path_379" data-name="Path 379" d="M-6435.174,3488.106a1.954,1.954,0,0,1-1.136-2.192,2.155,2.155,0,0,1-2.793.752c-1.375-.626-1.691-2.183-.848-4.041l1.737-3.821,8.03,3.652-1.679,3.7C-6432.667,3487.918-6433.937,3488.669-6435.174,3488.106Zm-2.848-3.2c.583.265,1.18-.1,1.555-.956l.813-1.788-1.9-.867-.814,1.79C-6438.758,3483.93-6438.642,3484.619-6438.022,3484.9Zm3.359,1.2c.551.25,1.06-.018,1.361-.711l.814-1.79-1.755-.8-.813,1.79C-6435.369,3485.276-6435.225,3485.84-6434.663,3486.1Z" transform="translate(6597.82 -3362.737)" fill="#38785e"/>
      <path id="Path_380" data-name="Path 380" d="M-6438.211,3497.441l-1.377-.909,2.6-3.945-1.6-1.054-2.338,3.544-1.378-.909,2.34-3.543-1.63-1.076-2.68,4.058-1.377-.908,3.776-5.72,7.36,4.858Z" transform="translate(6595.926 -3359.779)" fill="#38785e"/>
      <path id="Path_381" data-name="Path 381" d="M-6450.176,3498.083l2.8.662.126-.139,1.238-1.359-1.862-1.7,1.34-1.472,6.517,5.936-2.578,2.83c-1.551,1.706-3.253,1.926-4.7.612a2.908,2.908,0,0,1-.992-3.134l-3.415-.573Zm5.4.282-1.238,1.359a1.462,1.462,0,0,0-.043,2.293c.726.662,1.513.526,2.251-.284l1.237-1.359Z" transform="translate(6593.737 -3357.208)" fill="#38785e"/>
      <path id="Path_382" data-name="Path 382" d="M-6457.8,3515.1l-.908-1.379,3.943-2.6-1.056-1.6-3.545,2.34-.908-1.379,3.544-2.338-1.075-1.631-4.059,2.681-.911-1.379,5.722-3.775,4.859,7.36Z" transform="translate(6589.727 -3353.604)" fill="#38785e"/>
      <path id="Path_383" data-name="Path 383" d="M-6462.1,3517.384l-6.226-3.419,2.318,5.17-1.724.775-3.607-8.045,1.654-.743,6.211,3.412-2.315-5.161,1.737-.778,3.606,8.046Z" transform="translate(6586.627 -3351.952)" fill="#38785e"/>
      <path id="Path_384" data-name="Path 384" d="M-6477.766,3517.867l-1.67.431-.852-3.281a6.549,6.549,0,0,1,3.178-2.008,4.51,4.51,0,0,1,5.678,3.177,4.554,4.554,0,0,1-3.537,5.539,5.558,5.558,0,0,1-3.751-.358l.728-1.659a3.7,3.7,0,0,0,2.589.344,2.722,2.722,0,0,0,2-3.355,2.737,2.737,0,0,0-3.39-1.974,4.044,4.044,0,0,0-1.552.9Z" transform="translate(6583.388 -3350.417)" fill="#38785e"/>
      <path id="Path_385" data-name="Path 385" d="M-6484.676,3523.269l-1.076-8.756,1.976-.244,1.075,8.758Z" transform="translate(6581.408 -3349.898)" fill="#38785e"/>
      <path id="Path_386" data-name="Path 386" d="M-6489.511,3523.659l-4.188-5.739-.094,5.667-1.89-.032.146-8.814,1.815.028,4.175,5.726.094-5.655,1.9.031-.145,8.817Z" transform="translate(6577.813 -3349.729)" fill="#38785e"/>
      <path id="Path_387" data-name="Path 387" d="M-6505.48,3522.244l.277-1.628,4.66.8.324-1.889-4.189-.714.278-1.629,4.188.715.33-1.925-4.8-.82.275-1.628,6.762,1.153-1.484,8.7Z" transform="translate(6574.266 -3350.17)" fill="#38785e"/>
      <path id="Path_388" data-name="Path 388" d="M-6514.774,3519.419l.522-1.566,4.481,1.5.606-1.816-4.025-1.344.521-1.563,4.027,1.344.618-1.854-4.612-1.54.522-1.566,6.5,2.171-2.794,8.366Z" transform="translate(6570.901 -3351.079)" fill="#38785e"/>
      <path id="Path_389" data-name="Path 389" d="M-6518.437,3508.014l.078,2.882.168.086,1.633.85,1.163-2.235,1.767.92-4.073,7.826-3.4-1.769c-2.046-1.063-2.7-2.653-1.8-4.387a2.914,2.914,0,0,1,2.779-1.765l-.321-3.448Zm1.109,5.294-1.633-.85c-.972-.507-1.764-.349-2.229.545-.454.872-.123,1.6.851,2.105l1.632.85Z" transform="translate(6567.817 -3352.541)" fill="#38785e"/>
      <path id="Path_390" data-name="Path 390" d="M-6529.136,3511.373l5.033-7.244,1.635,1.136-5.035,7.246Z" transform="translate(6565.701 -3353.57)" fill="#38785e"/>
      <path id="Path_391" data-name="Path 391" d="M-6532.787,3508.463l.668-7.07-3.825,4.18-1.395-1.275,5.951-6.5,1.339,1.226-.668,7.052,3.817-4.171,1.4,1.283-5.951,6.5Z" transform="translate(6562.732 -3355.863)" fill="#38785e"/>
      <path id="Path_392" data-name="Path 392" d="M-6539.935,3494.406l-1.064-1.358,2.667-2.093a6.545,6.545,0,0,1,3.108,2.108,4.508,4.508,0,0,1-.64,6.472,4.55,4.55,0,0,1-6.489-1.027,5.564,5.564,0,0,1-1.172-3.579l1.811,0a3.7,3.7,0,0,0,.719,2.51,2.721,2.721,0,0,0,3.873.487,2.731,2.731,0,0,0,.452-3.893,3.991,3.991,0,0,0-1.44-1.063Z" transform="translate(6560.49 -3358.338)" fill="#38785e"/>
      <path id="Path_393" data-name="Path 393" d="M-6551.676,3481.583l1.515-.662,1.894,4.334,1.757-.767-1.7-3.9,1.515-.661,1.7,3.893,1.791-.781-1.949-4.461,1.514-.662,2.747,6.287-8.088,3.535Z" transform="translate(6557.543 -3363.058)" fill="#38785e"/>
      <path id="Path_394" data-name="Path 394" d="M-6553.152,3477.082l2.148-2.457-3.074-1.119-.591-2.28,4.824,1.784,3.653-4.239.6,2.306-2.321,2.749,3.354,1.241.584,2.256-5.16-1.931-3.434,3.935Z" transform="translate(6556.459 -3366.371)" fill="#38785e"/>
      <path id="Path_395" data-name="Path 395" d="M-6554.014,3464.181a2.651,2.651,0,0,0,2.956,2.405,2.662,2.662,0,0,0,2.446-2.934,3.4,3.4,0,0,0-1.25-2.18l1.152-1.29a5.161,5.161,0,0,1,1.914,3.392,4.476,4.476,0,0,1-4.036,5.039,4.483,4.483,0,0,1-4.894-4.24,5.009,5.009,0,0,1,1.115-3.6l1.517,1.015A3.2,3.2,0,0,0-6554.014,3464.181Z" transform="translate(6556.068 -3369.479)" fill="#38785e"/>
      <path id="Path_396" data-name="Path 396" d="M-6555.618,3451.394l1.648.088-.258,4.715,1.911.1.232-4.236,1.647.09-.231,4.237,1.949.106.265-4.852,1.648.09-.374,6.839-8.8-.48Z" transform="translate(6555.984 -3372.661)" fill="#38785e"/>
      <path id="Path_397" data-name="Path 397" d="M-6554.7,3445.9l6.949,1.377.736-3.709,1.706.338-1.123,5.663-8.654-1.716Z" transform="translate(6556.306 -3375.493)" fill="#38785e"/>
      <path id="Path_398" data-name="Path 398" d="M-6552.445,3437.35l6.693,2.3,1.229-3.573,1.642.565-1.874,5.454-8.337-2.866Z" transform="translate(6557.03 -3378.205)" fill="#38785e"/>
      <path id="Path_399" data-name="Path 399" d="M-6546.938,3426.006l1.468.755-2.159,4.2,1.7.875,1.939-3.775,1.467.754-1.939,3.774,1.736.894,2.222-4.324,1.467.752-3.132,6.1-7.841-4.031Z" transform="translate(6558.146 -3381.852)" fill="#38785e"/>
      <path id="Path_400" data-name="Path 400" d="M-6544.163,3422.142l7.106-.082-4.564-3.367,1.123-1.521,7.1,5.238-1.078,1.46-7.091.079,4.553,3.36-1.129,1.531-7.1-5.239Z" transform="translate(6559.872 -3385.051)" fill="#38785e"/>
      <path id="Path_401" data-name="Path 401" d="M-6534.716,3412.909a2.652,2.652,0,0,0-.031,3.812,2.662,2.662,0,0,0,3.82.077,3.413,3.413,0,0,0,.921-2.34l1.726.093a5.154,5.154,0,0,1-1.454,3.616,4.476,4.476,0,0,1-6.457,0,4.483,4.483,0,0,1,.252-6.472,5.009,5.009,0,0,1,3.508-1.38l.155,1.818A3.2,3.2,0,0,0-6534.716,3412.909Z" transform="translate(6562.692 -3387.534)" fill="#38785e"/>
      <path id="Path_402" data-name="Path 402" d="M-6525.58,3403.909l.959,1.345-3.851,2.744,1.113,1.56,3.459-2.465.958,1.344-3.46,2.466,1.135,1.591,3.962-2.823.959,1.345-5.586,3.98-5.119-7.187Z" transform="translate(6565.009 -3389.851)" fill="#38785e"/>
      <path id="Path_403" data-name="Path 403" d="M-6513.746,3402.083a1.43,1.43,0,0,1-.755,1.963,1.428,1.428,0,0,1-1.925-.825,1.414,1.414,0,0,1,.753-1.935A1.416,1.416,0,0,1-6513.746,3402.083Z" transform="translate(6570.255 -3390.849)" fill="#38785e"/>
    </g>
    <g id="Group_218" data-name="Group 218" transform="translate(-6518.511 3431.545)">
      <g id="Group_212" data-name="Group 212" transform="translate(31.902)">
        <path id="Path_404" data-name="Path 404" d="M-6497.361,3425.086a3.68,3.68,0,0,1-3.844,3.651,3.673,3.673,0,0,1-3.843-3.651,3.651,3.651,0,0,1,3.843-3.63A3.658,3.658,0,0,1-6497.361,3425.086Zm-6.033,0a2.227,2.227,0,0,0,2.208,2.24,2.193,2.193,0,0,0,2.169-2.24,2.175,2.175,0,0,0-2.169-2.219A2.2,2.2,0,0,0-6503.394,3425.086Z" transform="translate(6505.048 -3421.456)" fill="#38785e"/>
        <path id="Path_405" data-name="Path 405" d="M-6496.043,3421.494l1.953,5.4,1.963-5.4h1.665l-2.842,7.158h-1.667l-2.812-7.158Z" transform="translate(6507.68 -3421.442)" fill="#38785e"/>
        <path id="Path_406" data-name="Path 406" d="M-6484.884,3421.494v1.34h-3.834v1.552h3.445v1.341h-3.445v1.585h3.947v1.339h-5.563v-7.158Z" transform="translate(6510.377 -3421.442)" fill="#38785e"/>
        <path id="Path_407" data-name="Path 407" d="M-6479.427,3428.652l-1.135-2.046h-1.646v2.046h-1.615v-7.158h3.109c1.871,0,2.934.9,2.934,2.485a2.363,2.363,0,0,1-1.34,2.311l1.524,2.362Zm-2.781-3.394h1.494c.889,0,1.4-.41,1.4-1.229,0-.8-.513-1.194-1.4-1.194h-1.494Z" transform="translate(6512.732 -3421.442)" fill="#38785e"/>
      </g>
      <g id="Group_213" data-name="Group 213" transform="translate(17.35 90.647)">
        <path id="Path_408" data-name="Path 408" d="M-6510.283,3488.069v1.341h-3.834v1.553h3.446v1.34h-3.446v1.585h3.947v1.339h-5.562v-7.158Z" transform="translate(6515.732 -3487.987)" fill="#38785e"/>
        <path id="Path_409" data-name="Path 409" d="M-6506.581,3489.4c-.543,0-.912.2-.912.583,0,1.319,3.815.583,3.8,3.158,0,1.4-1.216,2.157-2.8,2.157a5.03,5.03,0,0,1-3.16-1.134l.644-1.318a4.248,4.248,0,0,0,2.537,1.075c.665,0,1.064-.247,1.064-.686,0-1.351-3.814-.562-3.814-3.1,0-1.3,1.114-2.115,2.771-2.115a5.113,5.113,0,0,1,2.719.776l-.624,1.339A4.979,4.979,0,0,0-6506.581,3489.4Z" transform="translate(6517.935 -3488.007)" fill="#38785e"/>
        <path id="Path_410" data-name="Path 410" d="M-6497.482,3488.069v1.371h-2.188v5.787h-1.615v-5.787h-2.178v-1.371Z" transform="translate(6520.175 -3487.987)" fill="#38785e"/>
        <path id="Path_411" data-name="Path 411" d="M-6496.061,3493.006a.777.777,0,0,1-.788.819.782.782,0,0,1-.787-.819.767.767,0,0,1,.787-.808A.763.763,0,0,1-6496.061,3493.006Z" transform="translate(6522.285 -3486.493)" fill="#38785e"/>
        <path id="Path_412" data-name="Path 412" d="M-6487.141,3488.062v7.167h-1.616v-5.8h-1.431v-1.368Z" transform="translate(6524.98 -3487.99)" fill="#38785e"/>
        <path id="Path_413" data-name="Path 413" d="M-6482.276,3494.052c1.218,0,1.791-.839,1.769-2.148a1.984,1.984,0,0,1-1.779.871,2.15,2.15,0,0,1-2.27-2.321,2.35,2.35,0,0,1,2.576-2.444c1.863,0,2.987,1.329,2.987,3.528,0,2.289-1.236,3.784-3.19,3.784a4.59,4.59,0,0,1-2.21-.583l.6-1.145A2.669,2.669,0,0,0-6482.276,3494.052Zm-.817-3.589a1.038,1.038,0,0,0,1.146,1.1,1.129,1.129,0,0,0,1.249-1.135,1.094,1.094,0,0,0-1.207-1.114A1.076,1.076,0,0,0-6483.094,3490.463Z" transform="translate(6527.019 -3488.009)" fill="#38785e"/>
        <path id="Path_414" data-name="Path 414" d="M-6474.833,3490.105c0-.46-.358-.727-.982-.727a3.327,3.327,0,0,0-1.994.9l-.633-1.207a4.762,4.762,0,0,1,2.862-1.063c1.432,0,2.445.726,2.445,1.85a3.906,3.906,0,0,1-1.372,2.382l-1.667,1.647h3.294v1.359h-5.379v-1.114l2.648-2.729A2.268,2.268,0,0,0-6474.833,3490.105Z" transform="translate(6529.232 -3488.009)" fill="#38785e"/>
        <path id="Path_415" data-name="Path 415" d="M-6466.724,3491.654c0,2.342-.982,3.63-2.761,3.63s-2.771-1.288-2.771-3.63.981-3.63,2.771-3.63S-6466.724,3489.323-6466.724,3491.654Zm-3.969,0c0,1.7.379,2.444,1.208,2.444s1.2-.745,1.2-2.444-.379-2.443-1.2-2.443S-6470.692,3489.948-6470.692,3491.654Z" transform="translate(6531.472 -3488.004)" fill="#38785e"/>
      </g>
      <g id="Group_217" data-name="Group 217" transform="translate(0 16.188)">
        <g id="Group_214" data-name="Group 214" transform="translate(0.074 26.117)">
          <path id="Path_416" data-name="Path 416" d="M-6520.829,3461.65v4.4h-2.575v-4.305l-5.014-9.145h2.613l3.67,6.322,3.613-6.322h2.592Z" transform="translate(6528.418 -3452.485)" fill="#38785e"/>
          <path id="Path_417" data-name="Path 417" d="M-6501.75,3452.6v2.247h-7.281v3.325h6.532v2.247h-6.532v3.382h7.512v2.249H-6511.6V3452.6Z" transform="translate(6534.502 -3452.485)" fill="#38785e"/>
          <path id="Path_418" data-name="Path 418" d="M-6486.824,3463.207h-6.572l-1.191,2.844h-2.67l5.9-13.45h2.669l5.823,13.45h-2.769Zm-.923-2.209-2.344-5.649-2.383,5.649Z" transform="translate(6539.698 -3452.485)" fill="#38785e"/>
          <path id="Path_419" data-name="Path 419" d="M-6471.8,3466.051l-2.324-3.978a4.183,4.183,0,0,1-.482.018h-3.034v3.96h-2.576V3452.6h5.61c3.479,0,5.458,1.671,5.458,4.631a4.374,4.374,0,0,1-2.671,4.361l2.959,4.458Zm-5.84-6.225h3.034c1.923,0,3-.827,3-2.518,0-1.652-1.076-2.46-3-2.46h-3.034Z" transform="translate(6545.867 -3452.485)" fill="#38785e"/>
          <path id="Path_420" data-name="Path 420" d="M-6458.464,3454.86c-1.211,0-2,.441-2,1.27,0,2.728,7.226,1.249,7.206,6.072,0,2.516-2.19,3.975-5.149,3.975a8.731,8.731,0,0,1-5.688-2.152l1.076-2.17a7.56,7.56,0,0,0,4.649,1.978c1.441,0,2.307-.537,2.307-1.479,0-2.805-7.226-1.211-7.226-5.994,0-2.344,2.018-3.843,5.034-3.843a9.159,9.159,0,0,1,4.862,1.423l-1.038,2.229A8.593,8.593,0,0,0-6458.464,3454.86Z" transform="translate(6551.703 -3452.516)" fill="#38785e"/>
        </g>
        <g id="Group_215" data-name="Group 215" transform="translate(0.421 44.988)">
          <path id="Path_421" data-name="Path 421" d="M-6484.081,3466.371q-.511,8.907-2.227,12.9a8.666,8.666,0,0,1-8.591,5.667,9.122,9.122,0,0,1-8.152-4.738q-2.147-3.479-2.716-13.825h-6.6a32.812,32.812,0,0,0,4.384,12.646q4.991,7.937,13.08,7.939,8.129,0,13.1-7.983a33.075,33.075,0,0,0,4.361-12.6Z" transform="translate(6533.882 -3466.371)" fill="#38785e"/>
          <path id="Path_422" data-name="Path 422" d="M-6514.6,3482.869a2.922,2.922,0,0,1-1.2-2.19q-.148-1.43-.147-6.949v-7.359h-5.687v7.359q0,5.769-.146,6.971a3.347,3.347,0,0,1-1.053,2.063q-.907.865-3.939.865h-1.389v1.938h18.955v-1.937h-1.642A6.724,6.724,0,0,1-6514.6,3482.869Z" transform="translate(6528.162 -3466.371)" fill="#38785e"/>
          <path id="Path_423" data-name="Path 423" d="M-6453.945,3466.371q-.51,8.907-2.225,12.9a8.669,8.669,0,0,1-8.593,5.667,9.117,9.117,0,0,1-8.15-4.738q-2.15-3.479-2.719-13.825h-6.595a32.788,32.788,0,0,0,4.384,12.646q4.991,7.937,13.08,7.939,8.129,0,13.1-7.983a33.083,33.083,0,0,0,4.359-12.6Z" transform="translate(6544.792 -3466.371)" fill="#38785e"/>
        </g>
        <g id="Group_216" data-name="Group 216">
          <path id="Path_424" data-name="Path 424" d="M-6505.773,3454.15q.565-10.595,2.755-14.092a9.144,9.144,0,0,1,8.128-4.695,9.094,9.094,0,0,1,8.109,4.717q2.175,3.505,2.732,14.069h6.654a32.969,32.969,0,0,0-4.415-12.87q-4.994-7.937-13.081-7.939t-13.079,7.9a32.742,32.742,0,0,0-4.421,12.908Z" transform="translate(6534.292 -3433.341)" fill="#38785e"/>
          <path id="Path_425" data-name="Path 425" d="M-6475.636,3454.15q.563-10.595,2.753-14.092a9.145,9.145,0,0,1,8.129-4.695,9.092,9.092,0,0,1,8.107,4.717q2.173,3.505,2.732,14.069h6.655a32.953,32.953,0,0,0-4.415-12.87q-4.994-7.937-13.08-7.939t-13.08,7.9a32.749,32.749,0,0,0-4.421,12.908Z" transform="translate(6545.203 -3433.341)" fill="#38785e"/>
          <path id="Path_426" data-name="Path 426" d="M-6522.722,3439.09a3.344,3.344,0,0,1,1.074,2.107q.126,1.2.125,6.888v6.065h5.687v-20.809h-1.854q-3.5,2.78-10.782,2.907v1.937h1.811Q-6523.67,3438.185-6522.722,3439.09Z" transform="translate(6528.471 -3433.341)" fill="#38785e"/>
        </g>
      </g>
    </g>
  </g>
</svg>
