<svg xmlns="http://www.w3.org/2000/svg" width="144" height="143.967" viewBox="0 0 144 143.967">
  <g id="Group_219" data-name="Group 219" transform="translate(6555.983 -3393.588)">
    <g id="Group_211" data-name="Group 211" transform="translate(-6555.983 3393.588)">
      <path id="Path_366" data-name="Path 366" d="M-6506.332,3395.24l1.748,7.1-1.6.394-1.415-5.744-1.418.349-.334-1.357Z" transform="translate(6561.914 -3393.378)" fill="#fff"/>
      <path id="Path_367" data-name="Path 367" d="M-6494.987,3397.253c.232,2.376-.636,3.779-2.44,3.956s-2.937-1.033-3.17-3.406.635-3.78,2.45-3.958S-6495.219,3394.889-6494.987,3397.253Zm-4.023.394c.168,1.722.625,2.442,1.466,2.359s1.14-.876.971-2.6-.625-2.441-1.455-2.36S-6499.181,3395.914-6499.011,3397.647Z" transform="translate(6563.021 -3393.557)" fill="#fff"/>
      <path id="Path_368" data-name="Path 368" d="M-6486.241,3397.418c-.107,2.386-1.166,3.655-2.979,3.574s-2.766-1.44-2.66-3.826,1.166-3.655,2.989-3.575S-6486.136,3395.041-6486.241,3397.418Zm-4.044-.18c-.077,1.73.275,2.508,1.119,2.545s1.253-.707,1.33-2.437-.274-2.507-1.107-2.545S-6490.208,3395.5-6490.285,3397.238Z" transform="translate(6564.135 -3393.588)" fill="#fff"/>
      <path id="Path_369" data-name="Path 369" d="M-6474.273,3401.261l-.665,2.262-1.582-.464.653-2.223-1.186-5.547,1.591.468.869,3.67,2.675-2.628,1.592.468Z" transform="translate(6566.022 -3393.372)" fill="#fff"/>
      <path id="Path_370" data-name="Path 370" d="M-6461.764,3400.966l-.582,1.236-3.54-1.664-.675,1.435,3.182,1.5-.582,1.238-3.182-1.5-.687,1.464,3.645,1.712-.582,1.237-5.136-2.414,3.106-6.609Z" transform="translate(6566.931 -3392.95)" fill="#fff"/>
      <path id="Path_371" data-name="Path 371" d="M-6457.315,3410.474l-2.792-1.9-1.271.849-1.4-.955,6.725-4.25,1.4.957-1.529,7.784-1.456-.991Zm.306-1.394.647-2.989-2.552,1.693Z" transform="translate(6567.837 -3392.235)" fill="#fff"/>
      <path id="Path_372" data-name="Path 372" d="M-6451.226,3417.74l.6-2.308-.114-.106-1.1-1.051-1.437,1.511-1.194-1.136,5.034-5.285,2.294,2.186c1.382,1.315,1.535,2.728.42,3.9a2.409,2.409,0,0,1-2.614.765l-.535,2.815Zm.333-4.461,1.1,1.05a1.208,1.208,0,0,0,1.9.079c.562-.588.465-1.242-.192-1.869l-1.1-1.049Z" transform="translate(6568.894 -3391.581)" fill="#fff"/>
      <path id="Path_373" data-name="Path 373" d="M-6441.817,3419.436c-.337-.437-.723-.614-1.038-.372-1.065.82,1.9,3.441-.183,5.037-1.131.873-2.5.361-3.486-.92a5.129,5.129,0,0,1-1.05-3.257l1.467-.3a4.324,4.324,0,0,0,.71,2.715c.415.536.86.706,1.216.433,1.09-.842-1.92-3.43.127-5.009,1.048-.808,2.4-.417,3.434.921a5.22,5.22,0,0,1,1.066,2.68l-1.47.329A5.093,5.093,0,0,0-6441.817,3419.436Z" transform="translate(6569.771 -3390.566)" fill="#fff"/>
      <path id="Path_374" data-name="Path 374" d="M-6434.37,3437.762a3.751,3.751,0,0,1-4.958-2.153,3.747,3.747,0,0,1,1.894-5.064,3.725,3.725,0,0,1,4.939,2.162A3.73,3.73,0,0,1-6434.37,3437.762Zm-2.4-5.662a2.27,2.27,0,0,0-1.222,2.966,2.234,2.234,0,0,0,2.966,1.142,2.215,2.215,0,0,0,1.219-2.919A2.245,2.245,0,0,0-6436.774,3432.1Z" transform="translate(6570.776 -3388.925)" fill="#fff"/>
      <path id="Path_375" data-name="Path 375" d="M-6428.592,3445.036l-1.326.322-.871-3.478-1.739.434.8,3.2-1.334.335-.8-3.2-2.68.671-.4-1.6,7.078-1.769Z" transform="translate(6571.124 -3387.69)" fill="#fff"/>
      <path id="Path_376" data-name="Path 376" d="M-6427.4,3460.11l-1.4.023-.036-2.232-5.9.1-.027-1.647,5.9-.1-.037-2.22,1.4-.023Z" transform="translate(6571.401 -3385.902)" fill="#fff"/>
      <path id="Path_377" data-name="Path 377" d="M-6427.9,3465.343l-7.259-.783.176-1.639,7.26.783Z" transform="translate(6571.351 -3384.769)" fill="#fff"/>
      <path id="Path_378" data-name="Path 378" d="M-6428.837,3471.916l-4.851.948,3.794,3.162-.457,1.777-7.067-1.817.369-1.435,4.766,1.227-3.566-2.919.267-1.041,4.532-.836-4.765-1.225.371-1.444,7.068,1.818Z" transform="translate(6571.063 -3384.083)" fill="#fff"/>
      <path id="Path_379" data-name="Path 379" d="M-6436.078,3486.5a1.616,1.616,0,0,1-.94-1.814,1.784,1.784,0,0,1-2.312.622c-1.139-.519-1.4-1.807-.7-3.344l1.438-3.162,6.646,3.022-1.39,3.058C-6434,3486.347-6435.053,3486.968-6436.078,3486.5Zm-2.357-2.652c.483.22.977-.085,1.287-.791l.673-1.48-1.576-.717-.674,1.481C-6439.043,3483.046-6438.947,3483.617-6438.435,3483.85Zm2.781.99c.455.206.877-.015,1.126-.588l.674-1.481-1.453-.661-.673,1.481C-6436.239,3484.16-6436.119,3484.627-6435.654,3484.84Z" transform="translate(6570.682 -3382.748)" fill="#fff"/>
      <path id="Path_380" data-name="Path 380" d="M-6439.493,3495.637l-1.14-.753,2.155-3.265-1.323-.872-1.936,2.933-1.14-.753,1.936-2.932-1.349-.891-2.218,3.358-1.14-.752,3.125-4.734,6.091,4.021Z" transform="translate(6570.016 -3381.709)" fill="#fff"/>
      <path id="Path_381" data-name="Path 381" d="M-6450.437,3497.393l2.32.548.1-.115,1.025-1.125-1.541-1.4,1.109-1.219,5.394,4.912-2.134,2.342c-1.283,1.411-2.691,1.594-3.886.506a2.407,2.407,0,0,1-.821-2.594l-2.826-.474Zm4.466.233-1.024,1.125a1.21,1.21,0,0,0-.036,1.9c.6.548,1.252.435,1.864-.235l1.024-1.125Z" transform="translate(6569.247 -3380.806)" fill="#fff"/>
      <path id="Path_382" data-name="Path 382" d="M-6458.658,3513.189l-.752-1.141,3.263-2.154-.873-1.323-2.934,1.937-.751-1.141,2.933-1.935-.89-1.349-3.359,2.219-.753-1.141,4.734-3.125,4.022,6.091Z" transform="translate(6567.838 -3379.539)" fill="#fff"/>
      <path id="Path_383" data-name="Path 383" d="M-6463.691,3515.869l-5.152-2.829,1.918,4.279-1.426.641-2.985-6.658,1.369-.615,5.14,2.824-1.917-4.271,1.438-.644,2.984,6.658Z" transform="translate(6566.749 -3378.959)" fill="#fff"/>
      <path id="Path_384" data-name="Path 384" d="M-6478.2,3517l-1.383.357-.7-2.715a5.418,5.418,0,0,1,2.63-1.662,3.732,3.732,0,0,1,4.7,2.629,3.768,3.768,0,0,1-2.928,4.584,4.6,4.6,0,0,1-3.1-.3l.6-1.373a3.057,3.057,0,0,0,2.143.285,2.252,2.252,0,0,0,1.652-2.776,2.264,2.264,0,0,0-2.8-1.633,3.342,3.342,0,0,0-1.284.742Z" transform="translate(6565.611 -3378.419)" fill="#fff"/>
      <path id="Path_385" data-name="Path 385" d="M-6484.861,3521.717l-.891-7.247,1.636-.2.89,7.248Z" transform="translate(6564.916 -3378.237)" fill="#fff"/>
      <path id="Path_386" data-name="Path 386" d="M-6490.575,3522.121l-3.466-4.749-.078,4.689-1.564-.026.121-7.295,1.5.023,3.456,4.739.077-4.68,1.575.026-.121,7.3Z" transform="translate(6563.652 -3378.178)" fill="#fff"/>
      <path id="Path_387" data-name="Path 387" d="M-6505.479,3520.74l.229-1.347,3.857.658.267-1.563-3.467-.59.23-1.348,3.466.592.273-1.594-3.97-.679.228-1.347,5.6.955-1.228,7.2Z" transform="translate(6562.406 -3378.333)" fill="#fff"/>
      <path id="Path_388" data-name="Path 388" d="M-6514.774,3517.969l.432-1.3,3.709,1.238.5-1.5-3.332-1.113.432-1.294,3.333,1.113.512-1.534L-6513,3512.3l.432-1.3,5.38,1.8-2.312,6.924Z" transform="translate(6561.224 -3378.652)" fill="#fff"/>
      <path id="Path_389" data-name="Path 389" d="M-6519.274,3507.834l.064,2.385.139.071,1.351.7.963-1.85,1.461.761-3.371,6.477-2.812-1.464c-1.693-.88-2.232-2.2-1.486-3.631a2.412,2.412,0,0,1,2.3-1.461l-.266-2.854Zm.918,4.381-1.351-.7c-.805-.419-1.46-.289-1.846.451-.375.722-.1,1.324.7,1.743l1.351.7Z" transform="translate(6560.14 -3379.166)" fill="#fff"/>
      <path id="Path_390" data-name="Path 390" d="M-6529.136,3510.124l4.165-6,1.354.94-4.167,6Z" transform="translate(6559.397 -3379.527)" fill="#fff"/>
      <path id="Path_391" data-name="Path 391" d="M-6533.572,3506.624l.553-5.851-3.166,3.459-1.153-1.055,4.924-5.382,1.108,1.014-.553,5.836,3.159-3.451,1.161,1.062-4.925,5.383Z" transform="translate(6558.354 -3380.333)" fill="#fff"/>
      <path id="Path_392" data-name="Path 392" d="M-6540.554,3493.811l-.881-1.124,2.208-1.731a5.411,5.411,0,0,1,2.573,1.745,3.731,3.731,0,0,1-.53,5.356,3.765,3.765,0,0,1-5.37-.85,4.6,4.6,0,0,1-.971-2.962l1.5,0a3.06,3.06,0,0,0,.6,2.077,2.251,2.251,0,0,0,3.2.4,2.261,2.261,0,0,0,.375-3.222,3.307,3.307,0,0,0-1.192-.879Z" transform="translate(6557.566 -3381.203)" fill="#fff"/>
      <path id="Path_393" data-name="Path 393" d="M-6551.675,3480.951l1.253-.548,1.567,3.587,1.454-.635-1.409-3.224,1.253-.547,1.407,3.222,1.482-.647-1.613-3.692,1.253-.548,2.273,5.2-6.693,2.925Z" transform="translate(6556.53 -3382.861)" fill="#fff"/>
      <path id="Path_394" data-name="Path 394" d="M-6553.414,3475.648l1.779-2.033-2.544-.926-.489-1.887,3.992,1.476,3.023-3.508.495,1.908-1.921,2.275,2.775,1.027.483,1.868-4.27-1.6-2.842,3.256Z" transform="translate(6556.15 -3384.025)" fill="#fff"/>
      <path id="Path_395" data-name="Path 395" d="M-6554.312,3463.492a2.194,2.194,0,0,0,2.446,1.991,2.2,2.2,0,0,0,2.024-2.428,2.813,2.813,0,0,0-1.035-1.8l.953-1.067a4.271,4.271,0,0,1,1.584,2.808,3.7,3.7,0,0,1-3.34,4.17,3.711,3.711,0,0,1-4.05-3.509,4.145,4.145,0,0,1,.923-2.979l1.255.84A2.643,2.643,0,0,0-6554.312,3463.492Z" transform="translate(6556.012 -3385.117)" fill="#fff"/>
      <path id="Path_396" data-name="Path 396" d="M-6555.681,3451.394l1.364.073-.213,3.9,1.581.086.192-3.506,1.363.074-.191,3.507,1.613.088.219-4.016,1.363.074-.309,5.66-7.284-.4Z" transform="translate(6555.983 -3386.235)" fill="#fff"/>
      <path id="Path_397" data-name="Path 397" d="M-6554.768,3445.5l5.751,1.139.609-3.069,1.412.28-.929,4.687-7.163-1.42Z" transform="translate(6556.096 -3387.23)" fill="#fff"/>
      <path id="Path_398" data-name="Path 398" d="M-6552.556,3437.13l5.54,1.9,1.017-2.957,1.359.468-1.551,4.513-6.9-2.372Z" transform="translate(6556.35 -3388.183)" fill="#fff"/>
      <path id="Path_399" data-name="Path 399" d="M-6547.467,3426.006l1.215.625-1.787,3.476,1.409.725,1.605-3.125,1.214.625-1.6,3.124,1.437.74,1.839-3.579,1.214.623-2.592,5.044-6.489-3.335Z" transform="translate(6556.743 -3389.464)" fill="#fff"/>
      <path id="Path_400" data-name="Path 400" d="M-6544.349,3421.285l5.882-.068-3.777-2.786.929-1.259,5.876,4.335-.892,1.208-5.868.065,3.768,2.781-.934,1.267-5.876-4.335Z" transform="translate(6557.35 -3390.588)" fill="#fff"/>
      <path id="Path_401" data-name="Path 401" d="M-6535.187,3412.46a2.195,2.195,0,0,0-.026,3.155,2.2,2.2,0,0,0,3.162.063,2.822,2.822,0,0,0,.762-1.937l1.428.077a4.265,4.265,0,0,1-1.2,2.993,3.7,3.7,0,0,1-5.344,0,3.711,3.711,0,0,1,.209-5.356,4.149,4.149,0,0,1,2.9-1.142l.127,1.5A2.645,2.645,0,0,0-6535.187,3412.46Z" transform="translate(6558.339 -3391.461)" fill="#fff"/>
      <path id="Path_402" data-name="Path 402" d="M-6526.523,3403.909l.794,1.113-3.187,2.271.921,1.291,2.863-2.04.793,1.112-2.864,2.041.939,1.317,3.279-2.337.793,1.114-4.623,3.294-4.236-5.948Z" transform="translate(6559.154 -3392.275)" fill="#fff"/>
      <path id="Path_403" data-name="Path 403" d="M-6514.23,3401.923a1.183,1.183,0,0,1-.625,1.625,1.181,1.181,0,0,1-1.592-.683,1.17,1.17,0,0,1,.623-1.6A1.171,1.171,0,0,1-6514.23,3401.923Z" transform="translate(6560.997 -3392.625)" fill="#fff"/>
    </g>
    <g id="Group_218" data-name="Group 218" transform="translate(-6524.972 3425.001)">
      <g id="Group_212" data-name="Group 212" transform="translate(26.402)">
        <path id="Path_404" data-name="Path 404" d="M-6498.686,3424.46a3.046,3.046,0,0,1-3.182,3.022,3.04,3.04,0,0,1-3.181-3.022,3.022,3.022,0,0,1,3.181-3A3.028,3.028,0,0,1-6498.686,3424.46Zm-4.993,0a1.843,1.843,0,0,0,1.828,1.854,1.815,1.815,0,0,0,1.794-1.854,1.8,1.8,0,0,0-1.794-1.836A1.822,1.822,0,0,0-6503.678,3424.46Z" transform="translate(6505.048 -3421.456)" fill="#fff"/>
        <path id="Path_405" data-name="Path 405" d="M-6496.343,3421.494l1.616,4.469,1.625-4.469h1.378l-2.353,5.924h-1.379l-2.327-5.924Z" transform="translate(6505.973 -3421.451)" fill="#fff"/>
        <path id="Path_406" data-name="Path 406" d="M-6485.823,3421.494v1.109H-6489v1.285h2.852V3425H-6489v1.312h3.267v1.108h-4.6v-5.924Z" transform="translate(6506.92 -3421.451)" fill="#fff"/>
        <path id="Path_407" data-name="Path 407" d="M-6480.185,3427.417l-.939-1.693h-1.363v1.693h-1.337v-5.924h2.573c1.548,0,2.429.744,2.429,2.056a1.956,1.956,0,0,1-1.109,1.913l1.261,1.955Zm-2.3-2.809h1.236c.736,0,1.16-.339,1.16-1.017,0-.658-.424-.988-1.16-.988h-1.236Z" transform="translate(6507.748 -3421.451)" fill="#fff"/>
      </g>
      <g id="Group_213" data-name="Group 213" transform="translate(14.359 75.018)">
        <path id="Path_408" data-name="Path 408" d="M-6511.222,3488.069v1.11h-3.173v1.285h2.852v1.109h-2.852v1.312h3.267v1.108h-4.6v-5.924Z" transform="translate(6515.732 -3488.001)" fill="#fff"/>
        <path id="Path_409" data-name="Path 409" d="M-6507.11,3489.159c-.449,0-.754.161-.754.483,0,1.092,3.157.482,3.148,2.614,0,1.161-1.007,1.785-2.319,1.785a4.163,4.163,0,0,1-2.615-.939l.533-1.091a3.516,3.516,0,0,0,2.1.89c.55,0,.88-.2.88-.567,0-1.118-3.156-.465-3.156-2.565,0-1.074.922-1.75,2.292-1.75a4.235,4.235,0,0,1,2.251.642l-.517,1.108A4.123,4.123,0,0,0-6507.11,3489.159Z" transform="translate(6516.506 -3488.008)" fill="#fff"/>
        <path id="Path_410" data-name="Path 410" d="M-6498.512,3488.069v1.134h-1.812v4.789h-1.336V3489.2h-1.8v-1.134Z" transform="translate(6517.293 -3488.001)" fill="#fff"/>
        <path id="Path_411" data-name="Path 411" d="M-6496.332,3492.866a.643.643,0,0,1-.651.677.647.647,0,0,1-.651-.677.635.635,0,0,1,.651-.668A.631.631,0,0,1-6496.332,3492.866Z" transform="translate(6518.035 -3487.476)" fill="#fff"/>
        <path id="Path_412" data-name="Path 412" d="M-6487.666,3488.062v5.931H-6489v-4.8h-1.185v-1.133Z" transform="translate(6518.981 -3488.002)" fill="#fff"/>
        <path id="Path_413" data-name="Path 413" d="M-6482.669,3493.01c1.008,0,1.481-.694,1.464-1.778a1.642,1.642,0,0,1-1.472.72,1.779,1.779,0,0,1-1.878-1.921,1.945,1.945,0,0,1,2.132-2.023c1.542,0,2.471,1.1,2.471,2.919,0,1.895-1.023,3.131-2.64,3.131a3.8,3.8,0,0,1-1.829-.483l.5-.948A2.209,2.209,0,0,0-6482.669,3493.01Zm-.676-2.97a.859.859,0,0,0,.948.913.934.934,0,0,0,1.033-.939.9.9,0,0,0-1-.922A.89.89,0,0,0-6483.345,3490.04Z" transform="translate(6519.697 -3488.009)" fill="#fff"/>
        <path id="Path_414" data-name="Path 414" d="M-6475.456,3489.744c0-.381-.3-.6-.812-.6a2.753,2.753,0,0,0-1.65.745l-.524-1a3.94,3.94,0,0,1,2.369-.88c1.185,0,2.023.6,2.023,1.531a3.232,3.232,0,0,1-1.135,1.972l-1.379,1.363h2.726V3494h-4.452v-.922l2.191-2.259A1.876,1.876,0,0,0-6475.456,3489.744Z" transform="translate(6520.475 -3488.009)" fill="#fff"/>
        <path id="Path_415" data-name="Path 415" d="M-6467.677,3491.028c0,1.938-.812,3-2.285,3s-2.293-1.066-2.293-3,.812-3,2.293-3S-6467.677,3489.1-6467.677,3491.028Zm-3.284,0c0,1.406.313,2.022,1,2.022s.99-.616.99-2.022-.314-2.022-.99-2.022S-6470.961,3489.615-6470.961,3491.028Z" transform="translate(6521.262 -3488.007)" fill="#fff"/>
      </g>
      <g id="Group_217" data-name="Group 217" transform="translate(0 13.397)">
        <g id="Group_214" data-name="Group 214" transform="translate(0.061 21.614)">
          <path id="Path_416" data-name="Path 416" d="M-6522.136,3460.09v3.642h-2.131v-3.563l-4.149-7.568h2.162l3.038,5.232,2.99-5.232h2.146Z" transform="translate(6528.417 -3452.505)" fill="#fff"/>
          <path id="Path_417" data-name="Path 417" d="M-6503.449,3452.6v1.86h-6.026v2.751h5.406v1.86h-5.406v2.8h6.217v1.861h-8.348V3452.6Z" transform="translate(6530.555 -3452.505)" fill="#fff"/>
          <path id="Path_418" data-name="Path 418" d="M-6488.623,3461.378h-5.438l-.986,2.354h-2.209l4.882-11.131h2.209l4.819,11.131h-2.291Zm-.764-1.828-1.94-4.675-1.972,4.675Z" transform="translate(6532.38 -3452.505)" fill="#fff"/>
          <path id="Path_419" data-name="Path 419" d="M-6473.249,3463.732l-1.924-3.292a3.418,3.418,0,0,1-.4.015h-2.511v3.277h-2.131V3452.6h4.643c2.879,0,4.518,1.383,4.518,3.832a3.619,3.619,0,0,1-2.21,3.609l2.449,3.69Zm-4.833-5.152h2.511c1.591,0,2.481-.684,2.481-2.084,0-1.367-.891-2.036-2.481-2.036h-2.511Z" transform="translate(6534.548 -3452.505)" fill="#fff"/>
          <path id="Path_420" data-name="Path 420" d="M-6459.434,3454.456c-1,0-1.655.365-1.655,1.051,0,2.258,5.98,1.034,5.963,5.025,0,2.082-1.812,3.29-4.261,3.29a7.226,7.226,0,0,1-4.708-1.781l.891-1.8a6.258,6.258,0,0,0,3.848,1.637c1.193,0,1.909-.444,1.909-1.224,0-2.322-5.979-1-5.979-4.961,0-1.94,1.669-3.181,4.166-3.181a7.579,7.579,0,0,1,4.023,1.178l-.859,1.844A7.113,7.113,0,0,0-6459.434,3454.456Z" transform="translate(6536.598 -3452.516)" fill="#fff"/>
        </g>
        <g id="Group_215" data-name="Group 215" transform="translate(0.348 37.231)">
          <path id="Path_421" data-name="Path 421" d="M-6488.956,3466.371q-.423,7.371-1.843,10.672a7.171,7.171,0,0,1-7.11,4.69,7.547,7.547,0,0,1-6.746-3.921q-1.778-2.878-2.249-11.441h-5.458a27.138,27.138,0,0,0,3.629,10.466q4.13,6.568,10.824,6.57,6.728,0,10.841-6.607a27.375,27.375,0,0,0,3.609-10.429Z" transform="translate(6530.171 -3466.371)" fill="#fff"/>
          <path id="Path_422" data-name="Path 422" d="M-6516.937,3480.024a2.418,2.418,0,0,1-.993-1.812q-.123-1.184-.123-5.751v-6.09h-4.707v6.09q0,4.775-.122,5.769a2.764,2.764,0,0,1-.871,1.708q-.751.716-3.26.716h-1.15v1.6h15.687v-1.6h-1.359A5.564,5.564,0,0,1-6516.937,3480.024Z" transform="translate(6528.162 -3466.371)" fill="#fff"/>
          <path id="Path_423" data-name="Path 423" d="M-6458.82,3466.371q-.423,7.371-1.842,10.672a7.173,7.173,0,0,1-7.111,4.69,7.545,7.545,0,0,1-6.745-3.921q-1.779-2.878-2.25-11.441h-5.458a27.129,27.129,0,0,0,3.628,10.466q4.13,6.568,10.825,6.57,6.727,0,10.842-6.607a27.374,27.374,0,0,0,3.608-10.429Z" transform="translate(6534.004 -3466.371)" fill="#fff"/>
        </g>
        <g id="Group_216" data-name="Group 216">
          <path id="Path_424" data-name="Path 424" d="M-6506.914,3450.562q.467-8.768,2.28-11.662a7.57,7.57,0,0,1,6.728-3.885,7.527,7.527,0,0,1,6.71,3.9q1.8,2.9,2.261,11.644h5.507a27.3,27.3,0,0,0-3.653-10.651q-4.133-6.569-10.825-6.57t-10.824,6.538a27.113,27.113,0,0,0-3.659,10.683Z" transform="translate(6530.517 -3433.341)" fill="#fff"/>
          <path id="Path_425" data-name="Path 425" d="M-6476.776,3450.562q.467-8.768,2.279-11.662a7.568,7.568,0,0,1,6.728-3.885,7.525,7.525,0,0,1,6.709,3.9q1.8,2.9,2.261,11.644h5.507a27.273,27.273,0,0,0-3.654-10.651q-4.133-6.569-10.824-6.57t-10.825,6.538a27.1,27.1,0,0,0-3.658,10.683Z" transform="translate(6534.349 -3433.341)" fill="#fff"/>
          <path id="Path_426" data-name="Path 426" d="M-6523.713,3438.1a2.768,2.768,0,0,1,.889,1.744q.1,1,.1,5.7v5.019h4.706v-17.221h-1.534q-2.893,2.3-8.923,2.406v1.6h1.5Q-6524.5,3437.35-6523.713,3438.1Z" transform="translate(6528.471 -3433.341)" fill="#fff"/>
        </g>
      </g>
    </g>
  </g>
</svg>
