<svg xmlns="http://www.w3.org/2000/svg" width="15.829" height="16.455" viewBox="0 0 15.829 16.455">
  <g id="Group_128" data-name="Group 128" transform="translate(631.38 -27.038)">
    <path id="Path_211" data-name="Path 211" d="M-382.146,245.623a.37.37,0,0,0-.217-.07.371.371,0,0,0-.116.019l-4.585,1.5a.37.37,0,0,0-.254.351v3.536a.37.37,0,0,0,.153.3.37.37,0,0,0,.332.052l4.585-1.5a.37.37,0,0,0,.254-.351v-3.536A.37.37,0,0,0-382.146,245.623Zm-.587,3.568-3.846,1.26v-2.758l3.846-1.26Z" transform="translate(-235.037 -210.435)" fill="#38785e"/>
    <path id="Path_212" data-name="Path 212" d="M-382.365,194.224a.37.37,0,0,0-.116.019l-4.585,1.5a.37.37,0,0,0-.236.467.37.37,0,0,0,.467.236l4.585-1.5a.37.37,0,0,0,.236-.467A.37.37,0,0,0-382.365,194.224Z" transform="translate(-235.034 -161.004)" fill="#38785e"/>
    <path id="Path_213" data-name="Path 213" d="M-382.365,147.9a.371.371,0,0,0-.116.019l-4.585,1.5a.37.37,0,0,0-.236.467.37.37,0,0,0,.467.236l4.585-1.5a.37.37,0,0,0,.236-.467A.37.37,0,0,0-382.365,147.9Z" transform="translate(-235.034 -116.392)" fill="#38785e"/>
    <path id="Path_214" data-name="Path 214" d="M-591.194,105.831l4.586,1.5a.37.37,0,0,0,.332-.052.37.37,0,0,0,.153-.3v-3.536a.37.37,0,0,0-.254-.351l-4.586-1.5a.371.371,0,0,0-.116-.019.37.37,0,0,0-.217.07.37.37,0,0,0-.153.3v3.536A.37.37,0,0,0-591.194,105.831Zm.485-3.376,3.846,1.26v2.758l-3.846-1.26Z" transform="translate(-38.455 -71.78)" fill="#38785e"/>
    <path id="Path_215" data-name="Path 215" d="M-591.2,249.249l4.586,1.5a.37.37,0,0,0,.467-.236.37.37,0,0,0-.236-.467l-4.586-1.5a.37.37,0,0,0-.116-.019.37.37,0,0,0-.351.254A.37.37,0,0,0-591.2,249.249Z" transform="translate(-38.453 -213.3)" fill="#38785e"/>
    <path id="Path_216" data-name="Path 216" d="M-591.2,295.576l4.586,1.5a.37.37,0,0,0,.467-.236.37.37,0,0,0-.236-.467l-4.586-1.5a.369.369,0,0,0-.116-.019.37.37,0,0,0-.351.254A.37.37,0,0,0-591.2,295.576Z" transform="translate(-38.453 -257.914)" fill="#38785e"/>
    <path id="Path_217" data-name="Path 217" d="M-591.2,341.9l4.586,1.5a.37.37,0,0,0,.467-.236.37.37,0,0,0-.236-.467l-4.586-1.5a.369.369,0,0,0-.116-.019.37.37,0,0,0-.351.254A.37.37,0,0,0-591.2,341.9Z" transform="translate(-38.453 -302.527)" fill="#38785e"/>
    <path id="Path_218" data-name="Path 218" d="M-382.365,101.564a.37.37,0,0,0-.116.019l-4.585,1.5a.37.37,0,0,0-.236.467.37.37,0,0,0,.467.236l4.585-1.5a.37.37,0,0,0,.236-.467A.37.37,0,0,0-382.365,101.564Z" transform="translate(-235.034 -71.771)" fill="#38785e"/>
    <path id="Path_219" data-name="Path 219" d="M-631.126,40.995l.118.039h0l7.428,2.44a.369.369,0,0,0,.227,0h0L-615.8,41a.37.37,0,0,0,.254-.351V27.409a.37.37,0,0,0-.153-.3.37.37,0,0,0-.217-.07.371.371,0,0,0-.116.019l-7.428,2.44-6-1.971h0l-1.426-.469a.37.37,0,0,0-.332.052.37.37,0,0,0-.153.3V40.643A.37.37,0,0,0-631.126,40.995Zm8.031-10.841,6.8-2.234V40.377l-6.8,2.234Zm-.74,12.457-5.635-1.849h0l-1.169-.385V27.92l6.8,2.234Z" fill="#38785e"/>
  </g>
</svg>
