<svg xmlns="http://www.w3.org/2000/svg" width="17.438" height="17.539" viewBox="0 0 17.438 17.539">
  <g id="Group_291" data-name="Group 291" transform="translate(0.114 0.225)">
    <g id="Group_290" data-name="Group 290" transform="translate(0.011 0)">
      <path id="Path_490" data-name="Path 490" d="M16.757,12.678,14.62,10.541a1.513,1.513,0,0,0-2.137,0l-.971.971a1.146,1.146,0,0,1-1.619,0L5.683,7.3a1.144,1.144,0,0,1,0-1.619l.971-.971a1.51,1.51,0,0,0,0-2.137L4.518.442a1.512,1.512,0,0,0-2.135,0L1.6,1.212a5.455,5.455,0,0,0,0,7.705l6.67,6.674a5.445,5.445,0,0,0,7.705,0l.777-.777A1.513,1.513,0,0,0,16.757,12.678ZM3.093,1.154a.5.5,0,0,1,.713,0l2.136,2.13a.5.5,0,0,1,0,.712l-.356.356L2.739,1.505ZM8.987,14.88,2.316,8.205a4.428,4.428,0,0,1-.278-5.976L4.877,5.068a2.15,2.15,0,0,0,.094,2.943l4.21,4.213h0a2.15,2.15,0,0,0,2.943.094l2.839,2.839A4.42,4.42,0,0,1,8.987,14.88Zm7.058-.777-.356.356-2.849-2.849.356-.356a.5.5,0,0,1,.712,0l2.137,2.137A.5.5,0,0,1,16.045,14.1Z" transform="translate(-0.011 0)" fill="#38785e" stroke="#38785e" stroke-width="0.25"/>
    </g>
  </g>
</svg>
