<svg xmlns="http://www.w3.org/2000/svg" width="16.182" height="16.182" viewBox="0 0 16.182 16.182">
  <g id="Group_153" data-name="Group 153" transform="translate(0 -0.001)">
    <g id="Group_130" data-name="Group 130" transform="translate(3.506 5.762)">
      <g id="Group_129" data-name="Group 129">
        <path id="Path_220" data-name="Path 220" d="M114.167,182.311l-1.141,3.26a.056.056,0,0,1-.106,0l-1.141-3.26a.056.056,0,0,0-.053-.038h-.749a.056.056,0,0,0-.053.075l1.616,4.505.016.043a.056.056,0,0,0,.053.037h.729a.056.056,0,0,0,.053-.037l1.6-4.461.031-.087a.056.056,0,0,0-.053-.075h-.75A.056.056,0,0,0,114.167,182.311Z" transform="translate(-110.921 -182.273)" fill="#38785e"/>
      </g>
    </g>
    <g id="Group_132" data-name="Group 132" transform="translate(7.971 5.762)">
      <g id="Group_131" data-name="Group 131">
        <rect id="Rectangle_83" data-name="Rectangle 83" width="0.853" height="4.66" rx="0.427" fill="#38785e"/>
      </g>
    </g>
    <g id="Group_134" data-name="Group 134" transform="translate(9.676 5.762)">
      <g id="Group_133" data-name="Group 133">
        <path id="Path_221" data-name="Path 221" d="M308.984,183.07a1.283,1.283,0,0,0-.394-.446,1.756,1.756,0,0,0-.578-.26,2.8,2.8,0,0,0-.7-.083H306.26a.134.134,0,0,0-.134.134v4.392a.134.134,0,0,0,.134.134h.585a.134.134,0,0,0,.134-.134v-1.548a.062.062,0,0,1,.062-.062h.121a2.807,2.807,0,0,0,.763-.1,2,2,0,0,0,.624-.294,1.431,1.431,0,0,0,.424-.475,1.4,1.4,0,0,0,.009-1.256Zm-.784.939a.708.708,0,0,1-.216.241,1.068,1.068,0,0,1-.346.157,1.752,1.752,0,0,1-.456.056h-.122a.081.081,0,0,1-.081-.081v-1.287a.081.081,0,0,1,.081-.081h.235a1.913,1.913,0,0,1,.4.041.922.922,0,0,1,.311.122.6.6,0,0,1,.2.2.611.611,0,0,1,.07.307A.669.669,0,0,1,308.2,184.009Z" transform="translate(-306.126 -182.28)" fill="#38785e"/>
      </g>
    </g>
    <g id="Group_136" data-name="Group 136" transform="translate(0 0.001)">
      <g id="Group_135" data-name="Group 135" transform="translate(0 0)">
        <path id="Path_222" data-name="Path 222" d="M15.946,7.52l-1.9-1.9V2.943a.809.809,0,0,0-.809-.809H10.56l-1.9-1.9a.809.809,0,0,0-1.144,0l-1.9,1.9H2.942a.809.809,0,0,0-.809.809V5.624l-1.9,1.9a.809.809,0,0,0,0,1.144l1.9,1.9v2.681a.809.809,0,0,0,.809.809H5.624l1.9,1.9a.808.808,0,0,0,1.144,0l1.9-1.9h2.681a.809.809,0,0,0,.809-.809V10.56l1.9-1.9A.809.809,0,0,0,15.946,7.52Zm-2.705,2.7v3.016H10.224L8.091,15.374,5.959,13.241H2.942V10.225L.809,8.092,2.942,5.959V2.943H5.959L8.091.81l2.133,2.133h3.016V5.959l2.133,2.133Z" transform="translate(0 -0.001)" fill="#38785e"/>
      </g>
    </g>
    <g id="Group_138" data-name="Group 138" transform="translate(7.627 1.964)">
      <g id="Group_137" data-name="Group 137" transform="translate(0 0)">
        <circle id="Ellipse_10" data-name="Ellipse 10" cx="0.405" cy="0.405" r="0.405" transform="translate(0 0.799) rotate(-80.783)" fill="#38785e"/>
      </g>
    </g>
    <g id="Group_140" data-name="Group 140" transform="translate(7.687 13.352)">
      <g id="Group_139" data-name="Group 139">
        <circle id="Ellipse_11" data-name="Ellipse 11" cx="0.405" cy="0.405" r="0.405" fill="#38785e"/>
      </g>
    </g>
    <g id="Group_142" data-name="Group 142" transform="translate(3.682 3.683)">
      <g id="Group_141" data-name="Group 141">
        <circle id="Ellipse_12" data-name="Ellipse 12" cx="0.405" cy="0.405" r="0.405" fill="#38785e"/>
      </g>
    </g>
    <g id="Group_144" data-name="Group 144" transform="translate(11.692 11.693)">
      <g id="Group_143" data-name="Group 143">
        <circle id="Ellipse_13" data-name="Ellipse 13" cx="0.405" cy="0.405" r="0.405" fill="#38785e"/>
      </g>
    </g>
    <g id="Group_146" data-name="Group 146" transform="translate(11.692 3.683)">
      <g id="Group_145" data-name="Group 145">
        <circle id="Ellipse_14" data-name="Ellipse 14" cx="0.405" cy="0.405" r="0.405" fill="#38785e"/>
      </g>
    </g>
    <g id="Group_148" data-name="Group 148" transform="translate(3.682 11.693)">
      <g id="Group_147" data-name="Group 147">
        <circle id="Ellipse_15" data-name="Ellipse 15" cx="0.405" cy="0.405" r="0.405" fill="#38785e"/>
      </g>
    </g>
    <g id="Group_150" data-name="Group 150" transform="translate(13.351 7.688)">
      <g id="Group_149" data-name="Group 149">
        <circle id="Ellipse_16" data-name="Ellipse 16" cx="0.405" cy="0.405" r="0.405" fill="#38785e"/>
      </g>
    </g>
    <g id="Group_152" data-name="Group 152" transform="translate(2.023 7.688)">
      <g id="Group_151" data-name="Group 151">
        <circle id="Ellipse_17" data-name="Ellipse 17" cx="0.405" cy="0.405" r="0.405" fill="#38785e"/>
      </g>
    </g>
  </g>
</svg>
